<?xml version="1.0" encoding="UTF-8"?> <svg xmlns="http://www.w3.org/2000/svg" xmlns:xlink="http://www.w3.org/1999/xlink" id="Layer_1" x="0px" y="0px" viewBox="0 0 503.607 503.607" style="enable-background:new 0 0 503.607 503.607;" xml:space="preserve" fill="#83835d"> <g transform="translate(1 1)"> <g> <g> <path d="M300.469,255l-15.948-31.895v-47.843c0-33.574-5.036-67.987-15.108-100.721l-10.072-36.092 c-1.679-3.357-5.036-5.875-8.393-5.875s-6.715,2.518-8.393,5.875l-10.072,36.092c-10.072,32.734-15.108,66.308-15.108,100.721 v47.842L201.427,255c-1.315,1.972-1.585,4.455-0.839,6.651v163.818c-0.403,1.372-0.457,2.743,0,4.115l7.554,25.18 c0.044,0.221,0.109,0.432,0.161,0.649c-5.208,3.786-8.554,9.918-8.554,16.977v9.233c0,11.751,9.233,20.984,20.984,20.984h59.593 c11.751,0,20.984-9.233,20.984-20.984v-9.233c0-6.32-2.686-11.894-6.983-15.712c0.096-0.354,0.194-0.707,0.268-1.075l6.715-26.02 c0-0.63,0-1.261-0.026-1.891c0.012-0.207,0.026-0.413,0.026-0.627V260.102C301.576,258.342,301.482,256.518,300.469,255z M224.089,451.407l-4.197-15.948h62.951l-4.197,15.948H224.089z M267.735,216.39h-33.574v-32.734h33.574V216.39z M230.804,234.016h40.288l8.393,16.787H222.41L230.804,234.016z M284.522,267.59v151.082h-67.148V267.59H284.522z M248.43,79.577 l2.518-9.233l2.518,8.393c9.233,28.538,13.43,58.754,14.269,88.131h-33.574C235.001,137.492,240.037,108.115,248.43,79.577z M285.361,482.462c0,2.518-1.679,4.197-4.197,4.197h-59.593c-2.518,0-4.197-1.679-4.197-4.197v-9.233 c0-2.518,1.679-4.197,4.197-4.197h4.197h51.2h4.197c2.518,0,4.197,1.679,4.197,4.197V482.462z"></path> <path d="M176.793,456.778c0.107-0.386,0.213-0.773,0.293-1.175l6.715-26.02c0-0.63,0-1.261-0.026-1.891 c0.012-0.207,0.026-0.413,0.026-0.627V227.368c0.194-1.279,0.193-2.59-0.209-3.795c-0.304-1.485-0.945-2.761-1.863-3.772 l-14.715-29.431v-48.682c0-33.574-5.036-67.987-15.108-100.721L141.833,4.875C140.155,1.518,136.797-1,133.44-1 s-6.715,2.518-8.393,5.875l-10.072,36.092c-10.072,32.734-15.108,67.148-15.108,100.721v47.843l-15.948,31.895 c-1.315,1.972-1.585,4.455-0.839,6.651v198.988c0,0.214,0.014,0.42,0.026,0.627c-0.026,0.63-0.026,1.261-0.026,1.891l6.715,25.18 c0.165,0.823,0.401,1.613,0.674,2.385c-4.539,3.823-7.389,9.56-7.389,16.081v9.233c0,10.911,9.233,20.144,20.984,20.144h58.754 c11.751,0,20.984-9.233,21.823-20.144v-9.233C184.64,466.493,181.597,460.595,176.793,456.778z M106.581,451.407l-4.197-15.948 h62.111l-4.197,15.948c0,0-0.839,0.839-1.679,0.839h-51.2C106.581,452.246,106.581,452.246,106.581,451.407z M150.227,183.656 h-33.574v-33.574h33.574V183.656z M113.296,200.443h40.289l8.393,16.787h-57.075L113.296,200.443z M167.014,234.016v184.656 H99.866V234.016H167.014z M130.922,46.003l2.518-9.233l2.518,9.233c8.393,28.538,13.43,57.915,14.269,87.292h-33.574 C117.492,103.918,122.528,74.541,130.922,46.003z M167.014,482.462c0,1.679-1.679,3.357-3.357,3.357h-59.593 c-2.518,0-4.197-1.679-4.197-3.357v-9.233c0-2.518,1.679-4.197,4.197-4.197h3.357h52.039h3.357c2.518,0,4.197,1.679,4.197,4.197 V482.462z"></path> <path d="M418.817,293.677c0.267-1.761,0.173-3.584-0.839-5.103l-15.948-31.895v-44.96c0.38-0.881,0.666-1.844,0.839-2.883 c0-33.574-5.036-67.987-15.108-100.721L376.85,72.023c-1.679-3.357-5.036-5.875-8.393-5.875c-3.357,0-6.715,2.518-8.393,5.875 l-10.072,36.092c-10.072,32.734-15.108,66.308-15.108,100.721v47.843l-15.948,31.895c-1.315,1.972-1.584,4.455-0.839,6.651 v130.244c-0.403,1.372-0.457,2.743,0,4.115l7.554,25.18c0.044,0.221,0.109,0.432,0.161,0.649 c-5.208,3.786-8.554,9.918-8.554,16.977v9.233c0,11.751,9.233,20.984,20.984,20.984h59.593c11.751,0,20.984-9.233,20.984-20.984 v-9.233c0-6.32-2.686-11.894-6.983-15.712c0.096-0.354,0.194-0.707,0.268-1.075l6.715-26.02c0-0.63,0-1.261-0.026-1.891 c0.012-0.207,0.026-0.413,0.026-0.627V293.677z M341.597,451.407l-4.197-15.948h62.951l-4.197,15.948H341.597z M385.243,249.964 h-33.574v-32.734h33.574V249.964z M348.312,267.59h40.289l8.393,16.787h-57.075L348.312,267.59z M402.03,301.164v117.508h-67.148 V301.164H402.03z M365.938,113.151l2.518-9.233l2.518,8.393c9.233,28.538,13.43,58.754,14.269,88.131h-33.574 C352.509,171.066,357.545,141.689,365.938,113.151z M402.869,482.462c0,2.518-1.679,4.197-4.197,4.197h-59.593 c-2.518,0-4.197-1.679-4.197-4.197v-9.233c0-2.518,1.679-4.197,4.197-4.197h4.197h51.2h4.197c2.518,0,4.197,1.679,4.197,4.197 V482.462z"></path> </g> </g> </g> <g> </g> <g> </g> <g> </g> <g> </g> <g> </g> <g> </g> <g> </g> <g> </g> <g> </g> <g> </g> <g> </g> <g> </g> <g> </g> <g> </g> <g> </g> </svg> 