<?xml version="1.0" encoding="UTF-8"?> <svg xmlns="http://www.w3.org/2000/svg" height="512pt" viewBox="0 0 512 512" width="512pt" fill="#83835d"><path d="m494.933594 281.601562h-11.792969l-17.664063-35.339843c-14.265624-28.605469-21.707031-60.132813-21.742187-92.097657v-137.097656c0-9.425781-7.640625-17.066406-17.066406-17.066406h-68.269531c-9.425782 0-17.066407 7.640625-17.066407 17.066406v51.199219c0 47.128906-38.203125 85.335937-85.332031 85.335937s-85.332031-38.207031-85.332031-85.335937v-51.199219c0-9.425781-7.640625-17.066406-17.066407-17.066406h-68.269531c-9.425781 0-17.066406 7.640625-17.066406 17.066406v137.855469c-.039063 31.492187-7.269531 62.5625-21.136719 90.839844l-17.605468 35.839843h-12.457032c-9.425781 0-17.066406 7.640626-17.066406 17.066407v51.199219c0 9.425781 7.640625 17.066406 17.066406 17.066406v59.734375c-9.425781 0-17.066406 7.640625-17.066406 17.066406v51.199219c0 9.425781 7.640625 17.066406 17.066406 17.066406h477.867188c9.425781 0 17.066406-7.640625 17.066406-17.066406v-51.199219c0-9.425781-7.640625-17.066406-17.066406-17.066406v-59.734375c9.425781 0 17.066406-7.640625 17.066406-17.066406v-51.199219c0-9.425781-7.640625-17.066407-17.066406-17.066407zm-119.46875 68.265626v-51.199219h85.335937v51.199219zm0 76.800781v-59.734375h51.203125v59.734375zm74.746094-172.765625 13.847656 27.699218h-20.324219v-42.054687c2.003906 4.855469 4.128906 9.625 6.476563 14.355469zm-91.8125-202.703125h68.269531v17.066406h-68.269531zm68.269531-34.132813v17.066406h-68.269531v-17.066406zm-69.8125 68.265625h69.8125v68.832031c0 2.660157.136719 5.316407.230469 7.96875h-.230469v119.46875h-51.203125v-68.269531c0-1.84375-.597656-3.640625-1.703125-5.117187l-48.539063-64.710938c16.710938-15.339844 27.839844-35.804687 31.632813-58.171875zm-79.742188 83.125c-5.359375 13.015625-12.460937 25.242188-21.113281 36.34375-8.667969-11.089843-15.777344-23.3125-21.128906-36.328125 13.921875 2.949219 28.304687 2.949219 42.222656 0zm-90.335937-24.953125-48.539063 64.710938c-1.105469 1.476562-1.703125 3.273437-1.703125 5.117187v68.269531h-51.203125v-119.46875h-.210937c.085937-2.40625.210937-4.804687.210937-7.210937v-69.589844h69.8125c3.792969 22.367188 14.921875 42.832031 31.632813 58.171875zm-50.242188 351.429688h-85.335937v-51.199219h85.335937zm-51.203125-68.265625v-59.734375h51.203125v59.734375zm-34.132812-128h85.335937v51.199219h-85.335937zm102.402343-230.402344h-68.269531v-17.066406h68.269531zm0-51.199219v17.066406h-68.269531v-17.066406zm-91.15625 236.261719c2.09375-4.265625 4.011719-8.582031 5.820313-12.960937v41.234374h-19.71875zm-45.378906 45.339844h17.066406v51.199219h-17.066406zm17.066406 68.265625h34.132813v59.734375h-34.132813zm-17.066406 76.800781h17.066406v51.199219h-17.066406zm136.535156-8.535156v-219.023438l46.609376-62.148437c4.578124 2.980468 9.386718 5.59375 14.375 7.816406 6.203124 19.757812 15.972656 38.210938 28.828124 54.449219 3.222657 3.546875 7.792969 5.570312 12.585938 5.570312s9.363281-2.023437 12.585938-5.570312c12.851562-16.242188 22.621093-34.699219 28.828124-54.457031 4.988282-2.222657 9.796876-4.835938 14.375-7.816407l46.609376 62.15625v278.757813h-204.796876zm221.863282 8.535156h85.335937v51.199219h-85.335937zm119.46875 51.199219h-17.066406v-51.199219h17.066406zm-17.066406-68.265625h-34.132813v-59.734375h34.132813zm17.066406-76.800781h-17.066406v-51.199219h17.066406zm0 0"></path><path d="m324.265625 238.933594h-136.53125c-4.714844 0-8.535156 3.820312-8.535156 8.53125 0 4.714844 3.820312 8.535156 8.535156 8.535156h136.53125c4.714844 0 8.535156-3.820312 8.535156-8.535156 0-4.710938-3.820312-8.53125-8.535156-8.53125zm0 0"></path><path d="m324.265625 281.601562h-136.53125c-4.714844 0-8.535156 3.820313-8.535156 8.53125 0 4.714844 3.820312 8.535157 8.535156 8.535157h136.53125c4.714844 0 8.535156-3.820313 8.535156-8.535157 0-4.710937-3.820312-8.53125-8.535156-8.53125zm0 0"></path><path d="m324.265625 324.265625h-136.53125c-4.714844 0-8.535156 3.820313-8.535156 8.535156 0 4.710938 3.820312 8.53125 8.535156 8.53125h136.53125c4.714844 0 8.535156-3.820312 8.535156-8.53125 0-4.714843-3.820312-8.535156-8.535156-8.535156zm0 0"></path><path d="m324.265625 366.933594h-136.53125c-4.714844 0-8.535156 3.820312-8.535156 8.53125 0 4.714844 3.820312 8.535156 8.535156 8.535156h136.53125c4.714844 0 8.535156-3.820312 8.535156-8.535156 0-4.710938-3.820312-8.53125-8.535156-8.53125zm0 0"></path><path d="m324.265625 409.601562h-136.53125c-4.714844 0-8.535156 3.820313-8.535156 8.53125 0 4.714844 3.820312 8.535157 8.535156 8.535157h136.53125c4.714844 0 8.535156-3.820313 8.535156-8.535157 0-4.710937-3.820312-8.53125-8.535156-8.53125zm0 0"></path><path d="m324.265625 452.265625h-136.53125c-4.714844 0-8.535156 3.820313-8.535156 8.535156 0 4.710938 3.820312 8.53125 8.535156 8.53125h136.53125c4.714844 0 8.535156-3.820312 8.535156-8.53125 0-4.714843-3.820312-8.535156-8.535156-8.535156zm0 0"></path></svg> 