<?xml version="1.0" encoding="UTF-8"?> <svg xmlns="http://www.w3.org/2000/svg" xmlns:xlink="http://www.w3.org/1999/xlink" id="Capa_1" x="0px" y="0px" viewBox="0 0 496 496" style="enable-background:new 0 0 496 496;" xml:space="preserve" fill="#83835d"> <g> <g> <g> <path d="M120,112c22.056,0,40-17.944,40-40c0-22.056-17.944-40-40-40c-22.056,0-40,17.944-40,40C80,94.056,97.944,112,120,112z M120,48c13.232,0,24,10.768,24,24s-10.768,24-24,24S96,85.232,96,72S106.768,48,120,48z"></path> <path d="M408,432v-56h15.512l6.152-98.432C432.808,279.08,436.288,280,440,280c13.232,0,24-10.768,24-24v-96 c0-20.328-15.296-36.976-34.952-39.488C440.776,107.696,448,90.696,448,72c0-39.696-32.304-72-72-72s-72,32.304-72,72 c0,18.696,7.224,35.696,18.952,48.512C303.296,123.024,288,139.672,288,160v96c0,13.232,10.768,24,24,24 c3.712,0,7.192-0.92,10.336-2.432L328.488,376H344v56H152v-56h15.512l6.152-98.432C176.808,279.08,180.288,280,184,280 c13.232,0,24-10.768,24-24v-96c0-20.328-15.296-36.976-34.952-39.488C184.776,107.696,192,90.696,192,72 c0-39.696-32.304-72-72-72S48,32.304,48,72c0,18.696,7.224,35.696,18.952,48.512C47.296,123.024,32,139.672,32,160v96 c0,13.232,10.768,24,24,24c3.712,0,7.192-0.92,10.336-2.432L72.488,376H88v56H0v64h496v-64H408z M320,72c0-30.88,25.12-56,56-56 s56,25.12,56,56c0,20.384-10.984,38.2-27.304,48h-0.536v0.328C395.872,125.176,386.272,128,376,128 c-10.272,0-19.872-2.824-28.16-7.672V120h-0.536C330.984,110.2,320,92.384,320,72z M343.512,360L336,239.752V168h-16v88 c0,4.416-3.592,8-8,8c-4.408,0-8-3.584-8-8v-96c0-13.232,10.768-24,24-24h15.168c9.856,5.08,21,8,32.832,8 c11.832,0,22.976-2.92,32.832-8H424c13.232,0,24,10.768,24,24v96c0,4.416-3.592,8-8,8c-4.408,0-8-3.584-8-8v-88h-16v71.752 L408.488,360H384v16h8v56h-32v-56h8v-16H343.512z M64,72c0-30.88,25.12-56,56-56s56,25.12,56,56c0,20.384-10.984,38.2-27.304,48 h-0.536v0.328C139.872,125.176,130.272,128,120,128c-10.272,0-19.872-2.824-28.16-7.672V120h-0.536C74.984,110.2,64,92.384,64,72 z M87.512,360L80,239.752V168H64v88c0,4.416-3.592,8-8,8s-8-3.584-8-8v-96c0-13.232,10.768-24,24-24h15.168 c9.856,5.08,21,8,32.832,8c11.832,0,22.976-2.92,32.832-8H168c13.232,0,24,10.768,24,24v96c0,4.416-3.592,8-8,8s-8-3.584-8-8v-88 h-16v71.752L152.488,360H128v16h8v56h-32v-56h8v-16H87.512z M480,480H16v-32h464V480z"></path> <rect x="112" y="64" width="16" height="16"></rect> <path d="M376,112c22.056,0,40-17.944,40-40c0-22.056-17.944-40-40-40c-22.056,0-40,17.944-40,40C336,94.056,353.944,112,376,112z M376,48c13.232,0,24,10.768,24,24s-10.768,24-24,24s-24-10.768-24-24S362.768,48,376,48z"></path> <rect x="368" y="64" width="16" height="16"></rect> </g> </g> </g> <g> </g> <g> </g> <g> </g> <g> </g> <g> </g> <g> </g> <g> </g> <g> </g> <g> </g> <g> </g> <g> </g> <g> </g> <g> </g> <g> </g> <g> </g> </svg> 