<?xml version="1.0" encoding="UTF-8"?> <svg xmlns="http://www.w3.org/2000/svg" xmlns:xlink="http://www.w3.org/1999/xlink" id="Capa_1" x="0px" y="0px" viewBox="0 0 480 480" style="enable-background:new 0 0 480 480;" xml:space="preserve" fill="#83835d"> <g> <g> <path d="M480,204c0-46.496-36.648-84.984-89.76-95.048C376.04,66.384,327.304,36,272,36c-51.352,0-94.76,28.784-109.92,72.216 c-32.712,2.032-60.184,17.392-71.312,39.736c-0.128,0-0.24,0.008-0.36,0.008L88,148c-48.52,0-88,35.888-88,80 c0,21.432,9.408,44.44,23.632,58.904C8.872,302.504,0,323.784,0,348c0,52.936,39.48,96,88,96l280.328-0.008 C429.904,441.488,480,387.664,480,324c0-19.472-4.872-41.832-21.744-60.496C472.456,245.688,480,225.168,480,204z M16,228 c0-35.288,32.296-64,72-64v0l2.76-0.04c1.576-0.032,3.224-0.088,4.648,0.016c3.536,0.312,6.88-1.872,8.112-5.232 c7.312-20.048,33.864-34.336,64.592-34.744c3.528-0.048,6.616-2.408,7.584-5.808C186.992,78.6,225.696,52,272,52 c49.496,0,94.32,28.392,104.264,66.04c0.816,3.08,3.376,5.384,6.52,5.864C430.608,131.208,464,164.144,464,204 c0,17.176-6.12,33.944-17.608,48.696c-13.248-10.152-31.272-18.512-55.848-23.576C376.68,177.408,327.168,124,272,124 c-51.464,0-95.096,35.224-110.24,88.288c-32.424,2.568-60.464,21.336-71.36,47.664c-0.008,0-0.008,0-0.016,0L88,260 c-19.936,0-37.864,6.048-52.296,16.392C23.872,264.912,16,245.84,16,228z M464,324c0,55.184-43.208,101.84-96,104v0H88 c-39.032,0-72-36.64-72-80c0-41.72,30.28-72,72-72l2.784-0.048c0.864-0.024,1.76-0.048,2.608-0.048 c0.672,0,1.328,0.016,1.936,0.072c3.656,0.288,7.208-2.024,8.32-5.624c7.512-24.464,34.024-41.872,64.48-42.344 c3.648-0.056,6.8-2.576,7.656-6.128C185.576,181.12,219.128,140,272,140c48.584,0,93.904,51.504,104.184,97.736 c0.704,3.144,3.216,5.56,6.384,6.136C437.368,253.8,464,280.008,464,324z"></path> </g> </g> <g> </g> <g> </g> <g> </g> <g> </g> <g> </g> <g> </g> <g> </g> <g> </g> <g> </g> <g> </g> <g> </g> <g> </g> <g> </g> <g> </g> <g> </g> </svg> 